<svg width="187" height="37" viewBox="0 0 187 37" fill="none" xmlns="http://www.w3.org/2000/svg">
<g clip-path="url(#clip0_375_206)">
<path d="M26 33V24H30V37H0V24H4V33H26Z" fill="#BCBBBB"/>
<path d="M23.0908 25.9902L23.7844 23.041L7.67993 19.687L7 23L23.0908 25.9902ZM9.1 15.2L24.1 22.2L25.5 19.2L10.5 12.2L9.1 15.2ZM13.3 7.8L26 18.4L28.1 15.9L15.4 5.3L13.3 7.8ZM21.5 0L18.8 2L28.7 15.3L31.4 13.3L21.5 0ZM7 30H23V27H7V30Z" fill="#F48024"/>
<path d="M40.24 20.16V18.6C40.24 17.68 40.5333 16.9533 41.12 16.42C41.72 15.8733 42.5333 15.6 43.56 15.6H46.78V17.56H43.58C43.22 17.56 42.94 17.6533 42.74 17.84C42.54 18.0133 42.44 18.2733 42.44 18.62V20.16H46.78V22.16H42.44V30H40.24V22.16H37.12V20.16H40.24ZM54.1322 30.2C53.4255 30.2 52.7855 30.1 52.2122 29.9C51.6522 29.7 51.1722 29.4133 50.7722 29.04C50.3722 28.6667 50.0655 28.2133 49.8522 27.68C49.6389 27.1467 49.5322 26.5533 49.5322 25.9V23.1C49.5322 22.4467 49.6389 21.8533 49.8522 21.32C50.0655 20.7867 50.3722 20.3333 50.7722 19.96C51.1722 19.5867 51.6522 19.3 52.2122 19.1C52.7855 18.9 53.4255 18.8 54.1322 18.8C54.7589 18.8 55.3322 18.8867 55.8522 19.06C56.3855 19.2333 56.8522 19.4867 57.2522 19.82C57.6522 20.1533 57.9789 20.5533 58.2322 21.02C58.4989 21.4867 58.6722 22.0133 58.7522 22.6H56.5522C56.4589 22.04 56.1922 21.5867 55.7522 21.24C55.3122 20.8933 54.7722 20.72 54.1322 20.72C53.3722 20.72 52.7789 20.9333 52.3522 21.36C51.9255 21.7733 51.7122 22.3533 51.7122 23.1V25.9C51.7122 26.6467 51.9255 27.2267 52.3522 27.64C52.7789 28.0533 53.3722 28.26 54.1322 28.26C54.7722 28.26 55.3122 28.0933 55.7522 27.76C56.1922 27.4133 56.4589 26.96 56.5522 26.4H58.7522C58.5655 27.5733 58.0589 28.5 57.2322 29.18C56.4189 29.86 55.3855 30.2 54.1322 30.2ZM61.7644 28H65.7244V20.98H62.2644V19H67.8644V28H71.0844V30H61.7644V28ZM64.9244 15.98C64.9244 15.5933 65.0444 15.2867 65.2844 15.06C65.5377 14.82 65.871 14.7 66.2844 14.7H66.7644C67.1777 14.7 67.5044 14.82 67.7444 15.06C67.9977 15.2867 68.1244 15.5933 68.1244 15.98C68.1244 16.3667 67.9977 16.6733 67.7444 16.9C67.5044 17.1267 67.171 17.24 66.7444 17.24H66.2844C65.871 17.24 65.5377 17.1267 65.2844 16.9C65.0444 16.6733 64.9244 16.3667 64.9244 15.98ZM73.2966 27.24H75.5766C75.6566 27.6 75.8766 27.8867 76.2366 28.1C76.6099 28.3133 77.0632 28.42 77.5966 28.42H78.3166C78.9699 28.42 79.4766 28.2867 79.8366 28.02C80.2099 27.7533 80.3966 27.3867 80.3966 26.92C80.3966 26.12 79.8099 25.64 78.6366 25.48L77.0366 25.26C75.8499 25.1 74.9699 24.76 74.3966 24.24C73.8366 23.7067 73.5566 22.96 73.5566 22C73.5566 20.9867 73.9099 20.2 74.6166 19.64C75.3366 19.08 76.3566 18.8 77.6766 18.8H78.3766C79.5366 18.8 80.4766 19.06 81.1966 19.58C81.9299 20.0867 82.3632 20.78 82.4966 21.66H80.2366C80.1566 21.3267 79.9499 21.0667 79.6166 20.88C79.2832 20.68 78.8699 20.58 78.3766 20.58H77.6766C77.0499 20.58 76.5699 20.7 76.2366 20.94C75.9032 21.1667 75.7366 21.5133 75.7366 21.98C75.7366 22.3667 75.8566 22.6667 76.0966 22.88C76.3499 23.0933 76.7499 23.2333 77.2966 23.3L78.9366 23.52C80.1899 23.6933 81.1099 24.0467 81.6966 24.58C82.2832 25.1133 82.5766 25.8733 82.5766 26.86C82.5766 27.9267 82.2099 28.7533 81.4766 29.34C80.7432 29.9133 79.6899 30.2 78.3166 30.2H77.5966C76.3699 30.2 75.3699 29.94 74.5966 29.42C73.8366 28.8867 73.4032 28.16 73.2966 27.24ZM91.5687 30.2C90.8087 30.2 90.1154 30.0933 89.4887 29.88C88.8754 29.6667 88.3487 29.3667 87.9087 28.98C87.4687 28.58 87.1287 28.1133 86.8887 27.58C86.6487 27.0333 86.5287 26.44 86.5287 25.8V23.18C86.5287 22.54 86.6487 21.9533 86.8887 21.42C87.1287 20.8733 87.4687 20.4067 87.9087 20.02C88.3487 19.6333 88.8754 19.3333 89.4887 19.12C90.1154 18.9067 90.8087 18.8 91.5687 18.8C92.3287 18.8 93.0154 18.9067 93.6287 19.12C94.2554 19.3333 94.7887 19.6333 95.2287 20.02C95.6687 20.4067 96.0087 20.8733 96.2487 21.42C96.4887 21.9533 96.6087 22.54 96.6087 23.18V25.8C96.6087 26.44 96.4887 27.0333 96.2487 27.58C96.0087 28.1133 95.6687 28.58 95.2287 28.98C94.7887 29.3667 94.2554 29.6667 93.6287 29.88C93.0154 30.0933 92.3287 30.2 91.5687 30.2ZM89.5287 25.8C89.5287 26.3467 89.7087 26.78 90.0687 27.1C90.4421 27.42 90.9421 27.58 91.5687 27.58C92.1954 27.58 92.6887 27.42 93.0487 27.1C93.4221 26.78 93.6087 26.3467 93.6087 25.8V23.18C93.6087 22.6333 93.4221 22.2 93.0487 21.88C92.6887 21.56 92.1954 21.4 91.5687 21.4C90.9421 21.4 90.4421 21.56 90.0687 21.88C89.7087 22.2 89.5287 22.6333 89.5287 23.18V25.8ZM98.0209 19H101.121L103.201 25.64C103.281 25.88 103.341 26.1267 103.381 26.38C103.434 26.6333 103.474 26.8667 103.501 27.08C103.528 27.3333 103.548 27.5733 103.561 27.8H103.681C103.694 27.5733 103.714 27.3333 103.741 27.08C103.768 26.8667 103.808 26.6333 103.861 26.38C103.914 26.1267 103.974 25.88 104.041 25.64L106.041 19H109.101L105.381 30H101.781L98.0209 19ZM110.513 23.18C110.513 22.5133 110.633 21.9133 110.873 21.38C111.113 20.8467 111.453 20.3867 111.893 20C112.333 19.6133 112.86 19.32 113.473 19.12C114.1 18.9067 114.793 18.8 115.553 18.8C116.3 18.8 116.98 18.9067 117.593 19.12C118.206 19.3333 118.733 19.6333 119.173 20.02C119.613 20.4067 119.953 20.8733 120.193 21.42C120.433 21.9533 120.553 22.5467 120.553 23.2V25.2H113.473V25.8C113.473 26.4667 113.653 26.9867 114.013 27.36C114.373 27.72 114.886 27.9 115.553 27.9C116.046 27.9 116.466 27.82 116.813 27.66C117.16 27.5 117.393 27.28 117.513 27H120.453C120.333 27.48 120.12 27.92 119.813 28.32C119.52 28.7067 119.16 29.04 118.733 29.32C118.306 29.6 117.82 29.82 117.273 29.98C116.74 30.1267 116.166 30.2 115.553 30.2C114.793 30.2 114.1 30.0933 113.473 29.88C112.86 29.6667 112.333 29.3733 111.893 29C111.453 28.6133 111.113 28.1467 110.873 27.6C110.633 27.0533 110.513 26.4533 110.513 25.8V23.18ZM113.473 23.4H117.653V23.2C117.653 22.5333 117.466 22.02 117.093 21.66C116.733 21.2867 116.22 21.1 115.553 21.1C114.9 21.1 114.386 21.2867 114.013 21.66C113.653 22.02 113.473 22.5267 113.473 23.18V23.4ZM126.025 19V20.9H126.225C126.332 20.22 126.645 19.7 127.165 19.34C127.685 18.98 128.372 18.8 129.225 18.8C130.439 18.8 131.379 19.1733 132.045 19.92C132.712 20.6533 133.045 21.68 133.045 23V23.9H129.845V23.2C129.845 22.6 129.672 22.1333 129.325 21.8C128.979 21.4667 128.505 21.3 127.905 21.3C127.372 21.3 126.952 21.4733 126.645 21.82C126.339 22.1533 126.185 22.6133 126.185 23.2V30H123.185V19H126.025ZM134.517 23V20.3H137.437V19C137.437 18.4933 137.524 18.0333 137.697 17.62C137.884 17.1933 138.144 16.8333 138.477 16.54C138.811 16.2333 139.211 16 139.677 15.84C140.144 15.68 140.664 15.6 141.237 15.6H144.457V18.2H141.337C141.071 18.2 140.851 18.2867 140.677 18.46C140.517 18.62 140.437 18.8333 140.437 19.1V20.3H144.457V23H140.437V30H137.437V23H134.517ZM146.03 18.3V15.6H152.43V26.2C152.43 26.5467 152.523 26.82 152.71 27.02C152.91 27.2067 153.183 27.3 153.53 27.3H156.83V30H153.23C152.043 30 151.11 29.6667 150.43 29C149.763 28.32 149.43 27.3867 149.43 26.2V18.3H146.03ZM163.522 30.2C162.762 30.2 162.069 30.0933 161.442 29.88C160.829 29.6667 160.302 29.3667 159.862 28.98C159.422 28.58 159.082 28.1133 158.842 27.58C158.602 27.0333 158.482 26.44 158.482 25.8V23.18C158.482 22.54 158.602 21.9533 158.842 21.42C159.082 20.8733 159.422 20.4067 159.862 20.02C160.302 19.6333 160.829 19.3333 161.442 19.12C162.069 18.9067 162.762 18.8 163.522 18.8C164.282 18.8 164.969 18.9067 165.582 19.12C166.209 19.3333 166.742 19.6333 167.182 20.02C167.622 20.4067 167.962 20.8733 168.202 21.42C168.442 21.9533 168.562 22.54 168.562 23.18V25.8C168.562 26.44 168.442 27.0333 168.202 27.58C167.962 28.1133 167.622 28.58 167.182 28.98C166.742 29.3667 166.209 29.6667 165.582 29.88C164.969 30.0933 164.282 30.2 163.522 30.2ZM161.482 25.8C161.482 26.3467 161.662 26.78 162.022 27.1C162.395 27.42 162.895 27.58 163.522 27.58C164.149 27.58 164.642 27.42 165.002 27.1C165.375 26.78 165.562 26.3467 165.562 25.8V23.18C165.562 22.6333 165.375 22.2 165.002 21.88C164.642 21.56 164.149 21.4 163.522 21.4C162.895 21.4 162.395 21.56 162.022 21.88C161.662 22.2 161.482 22.6333 161.482 23.18V25.8ZM169.714 19H171.974L172.734 25.34C172.761 25.54 172.781 25.8133 172.794 26.16C172.821 26.4933 172.841 26.8267 172.854 27.16C172.881 27.56 172.901 27.9733 172.914 28.4H173.154C173.194 27.96 173.234 27.5467 173.274 27.16C173.314 26.8267 173.354 26.4867 173.394 26.14C173.447 25.7933 173.487 25.5267 173.514 25.34L174.594 19H176.474L177.554 25.34C177.594 25.54 177.627 25.8133 177.654 26.16C177.694 26.4933 177.727 26.8267 177.754 27.16C177.794 27.56 177.827 27.9733 177.854 28.4H178.094C178.121 27.9733 178.147 27.56 178.174 27.16C178.201 26.8267 178.221 26.4933 178.234 26.16C178.261 25.8133 178.287 25.54 178.314 25.34L179.034 19H181.314L179.854 30H176.794L175.794 23.4C175.767 23.2133 175.747 22.9733 175.734 22.68C175.721 22.3867 175.707 22.1 175.694 21.82C175.681 21.5 175.674 21.16 175.674 20.8H175.434C175.434 21.16 175.427 21.5 175.414 21.82C175.401 22.1 175.381 22.3867 175.354 22.68C175.341 22.9733 175.321 23.2133 175.294 23.4L174.234 30H171.154L169.714 19Z" fill="white"/>
</g>
<defs>
<clipPath id="clip0_375_206">
<rect width="187" height="37" fill="white"/>
</clipPath>
</defs>
</svg>
