<svg width="187" height="37" viewBox="0 0 187 37" fill="none" xmlns="http://www.w3.org/2000/svg">
<g clip-path="url(#clip0_375_206)">
<path d="M26 33V24H30V37H0V24H4V33H26Z" fill="#BCBBBB"/>
<path d="M23.0908 25.9902L23.7844 23.041L7.67993 19.687L7 23L23.0908 25.9902ZM9.1 15.2L24.1 22.2L25.5 19.2L10.5 12.2L9.1 15.2ZM13.3 7.8L26 18.4L28.1 15.9L15.4 5.3L13.3 7.8ZM21.5 0L18.8 2L28.7 15.3L31.4 13.3L21.5 0ZM7 30H23V27H7V30Z" fill="#F48024"/>
<path d="M37.2 21.74V20.1H40.4V18.4C40.4 17.52 40.6733 16.8333 41.22 16.34C41.7667 15.8467 42.52 15.6 43.48 15.6H46.7V17.24H43.48C42.6267 17.24 42.2 17.6267 42.2 18.4V20.1H46.7V21.74H42.2V30H40.4V21.74H37.2ZM54.1522 30.2C53.4722 30.2 52.8589 30.1 52.3122 29.9C51.7789 29.7 51.3189 29.4133 50.9322 29.04C50.5589 28.6667 50.2655 28.2133 50.0522 27.68C49.8522 27.1467 49.7522 26.5533 49.7522 25.9V23.1C49.7522 22.4467 49.8522 21.8533 50.0522 21.32C50.2655 20.7867 50.5589 20.3333 50.9322 19.96C51.3189 19.5867 51.7789 19.3 52.3122 19.1C52.8589 18.9 53.4722 18.8 54.1522 18.8C55.3655 18.8 56.3589 19.1333 57.1322 19.8C57.9189 20.4533 58.3922 21.3533 58.5522 22.5H56.7522C56.6589 21.86 56.3722 21.3533 55.8922 20.98C55.4255 20.5933 54.8455 20.4 54.1522 20.4C53.3522 20.4 52.7189 20.64 52.2522 21.12C51.7855 21.6 51.5522 22.26 51.5522 23.1V25.9C51.5522 26.74 51.7789 27.4 52.2322 27.88C52.6989 28.36 53.3389 28.6 54.1522 28.6C54.8455 28.6 55.4255 28.4133 55.8922 28.04C56.3722 27.6533 56.6589 27.14 56.7522 26.5H58.5522C58.3789 27.66 57.8989 28.5667 57.1122 29.22C56.3389 29.8733 55.3522 30.2 54.1522 30.2ZM61.8844 30V28.36H65.8844V20.64H62.3844V19H67.6844V28.36H70.9844V30H61.8844ZM66.2844 14.7H66.6844C67.071 14.7 67.3844 14.8133 67.6244 15.04C67.8644 15.2667 67.9844 15.56 67.9844 15.92C67.9844 16.28 67.8644 16.5667 67.6244 16.78C67.3844 16.9933 67.071 17.1 66.6844 17.1H66.2844C65.8977 17.1 65.5844 17 65.3444 16.8C65.1044 16.5867 64.9844 16.2933 64.9844 15.92C64.9844 15.56 65.1044 15.2667 65.3444 15.04C65.5844 14.8133 65.8977 14.7 66.2844 14.7ZM73.5166 27.3H75.4166C75.4966 27.6867 75.7432 28 76.1566 28.24C76.5699 28.48 77.0766 28.6 77.6766 28.6H78.2366C78.9566 28.6 79.5166 28.4533 79.9166 28.16C80.3166 27.8533 80.5166 27.4467 80.5166 26.94C80.5166 26.0733 79.9032 25.5467 78.6766 25.36L77.0166 25.12C75.9366 24.96 75.1299 24.62 74.5966 24.1C74.0632 23.58 73.7966 22.8533 73.7966 21.92C73.7966 20.9333 74.1432 20.1667 74.8366 19.62C75.5432 19.0733 76.5232 18.8 77.7766 18.8H78.3366C78.8699 18.8 79.3632 18.8667 79.8166 19C80.2699 19.1333 80.6699 19.3267 81.0166 19.58C81.3632 19.82 81.6432 20.1133 81.8566 20.46C82.0832 20.7933 82.2299 21.1667 82.2966 21.58H80.3966C80.3166 21.2333 80.0899 20.9533 79.7166 20.74C79.3432 20.5133 78.8832 20.4 78.3366 20.4H77.7766C77.0966 20.4 76.5632 20.5333 76.1766 20.8C75.8032 21.0667 75.6166 21.4667 75.6166 22C75.6166 22.4267 75.7432 22.7533 75.9966 22.98C76.2632 23.1933 76.6899 23.34 77.2766 23.42L78.9366 23.66C80.1232 23.8333 80.9832 24.18 81.5166 24.7C82.0632 25.22 82.3366 25.96 82.3366 26.92C82.3366 27.9467 81.9766 28.7533 81.2566 29.34C80.5499 29.9133 79.5432 30.2 78.2366 30.2H77.6766C76.5166 30.2 75.5566 29.94 74.7966 29.42C74.0499 28.8867 73.6232 28.18 73.5166 27.3ZM90.9688 30.2C90.2488 30.2 89.5888 30.0933 88.9888 29.88C88.4021 29.6667 87.9021 29.3733 87.4888 29C87.0754 28.6133 86.7554 28.1533 86.5288 27.62C86.3021 27.0867 86.1888 26.4933 86.1888 25.84V23.14C86.1888 22.4867 86.3021 21.8933 86.5288 21.36C86.7554 20.8267 87.0754 20.3733 87.4888 20C87.9021 19.6133 88.4021 19.32 88.9888 19.12C89.5888 18.9067 90.2488 18.8 90.9688 18.8C91.6888 18.8 92.3421 18.9067 92.9288 19.12C93.5288 19.32 94.0354 19.6133 94.4488 20C94.8621 20.3733 95.1821 20.8267 95.4088 21.36C95.6354 21.8933 95.7488 22.4867 95.7488 23.14V25.84C95.7488 26.4933 95.6354 27.0933 95.4088 27.64C95.1821 28.1733 94.8621 28.6333 94.4488 29.02C94.0354 29.3933 93.5354 29.6867 92.9488 29.9C92.3621 30.1 91.7021 30.2 90.9688 30.2ZM88.6888 25.84C88.6888 26.5067 88.8888 27.0333 89.2888 27.42C89.7021 27.8067 90.2621 28 90.9688 28C91.6754 28 92.2288 27.8067 92.6288 27.42C93.0421 27.0333 93.2488 26.5067 93.2488 25.84V23.14C93.2488 22.4733 93.0421 21.9467 92.6288 21.56C92.2288 21.1733 91.6754 20.98 90.9688 20.98C90.2621 20.98 89.7021 21.1733 89.2888 21.56C88.8888 21.9467 88.6888 22.4733 88.6888 23.14V25.84ZM97.6409 19H100.241L102.581 26.12C102.674 26.3867 102.741 26.6467 102.781 26.9C102.834 27.14 102.874 27.3533 102.901 27.54C102.928 27.7667 102.948 27.98 102.961 28.18H103.101C103.101 27.98 103.114 27.7667 103.141 27.54C103.168 27.3533 103.201 27.14 103.241 26.9C103.294 26.6467 103.361 26.3867 103.441 26.12L105.681 19H108.281L104.461 30H101.521L97.6409 19ZM110.173 23.1C110.173 22.4467 110.286 21.8533 110.513 21.32C110.74 20.7867 111.06 20.3333 111.473 19.96C111.886 19.5867 112.386 19.3 112.973 19.1C113.56 18.9 114.22 18.8 114.953 18.8C115.673 18.8 116.32 18.9067 116.893 19.12C117.48 19.32 117.98 19.6067 118.393 19.98C118.806 20.3533 119.126 20.8067 119.353 21.34C119.58 21.8733 119.693 22.4667 119.693 23.12V25.12H112.653V25.84C112.653 26.5867 112.853 27.1667 113.253 27.58C113.666 27.9933 114.233 28.2 114.953 28.2C115.486 28.2 115.946 28.1133 116.333 27.94C116.72 27.7667 116.993 27.5267 117.153 27.22H119.613C119.493 27.6733 119.293 28.0867 119.013 28.46C118.733 28.82 118.386 29.1333 117.973 29.4C117.573 29.6533 117.113 29.8533 116.593 30C116.086 30.1333 115.54 30.2 114.953 30.2C114.233 30.2 113.573 30.1 112.973 29.9C112.386 29.7 111.886 29.4133 111.473 29.04C111.06 28.6533 110.74 28.1933 110.513 27.66C110.286 27.1267 110.173 26.5333 110.173 25.88V23.1ZM112.653 23.44H117.253V23.12C117.253 22.3867 117.046 21.82 116.633 21.42C116.233 21.0067 115.673 20.8 114.953 20.8C114.233 20.8 113.666 21.0067 113.253 21.42C112.853 21.82 112.653 22.38 112.653 23.1V23.44ZM125.205 19V20.9H125.385C125.519 20.2333 125.852 19.72 126.385 19.36C126.919 18.9867 127.599 18.8 128.425 18.8C129.612 18.8 130.539 19.1667 131.205 19.9C131.872 20.6333 132.205 21.6467 132.205 22.94V23.74H129.585V23.16C129.585 22.4533 129.392 21.9067 129.005 21.52C128.619 21.12 128.085 20.92 127.405 20.92C126.765 20.92 126.259 21.12 125.885 21.52C125.525 21.92 125.345 22.4667 125.345 23.16V30H122.845V19H125.205ZM134.018 22.48V20.22H137.038V18.74C137.038 17.78 137.351 17.02 137.978 16.46C138.618 15.8867 139.471 15.6 140.538 15.6H143.758V17.8H140.598C140.278 17.8 140.024 17.8933 139.838 18.08C139.651 18.2533 139.558 18.4933 139.558 18.8V20.22H143.758V22.48H139.558V30H137.038V22.48H134.018ZM145.55 17.78V15.52H151.55V26.44C151.55 26.8533 151.663 27.1733 151.89 27.4C152.13 27.6267 152.443 27.74 152.83 27.74H156.11V30H152.65C151.53 30 150.65 29.6867 150.01 29.06C149.37 28.4333 149.05 27.56 149.05 26.44V17.78H145.55ZM162.922 30.2C162.202 30.2 161.542 30.0933 160.942 29.88C160.355 29.6667 159.855 29.3733 159.442 29C159.029 28.6133 158.709 28.1533 158.482 27.62C158.255 27.0867 158.142 26.4933 158.142 25.84V23.14C158.142 22.4867 158.255 21.8933 158.482 21.36C158.709 20.8267 159.029 20.3733 159.442 20C159.855 19.6133 160.355 19.32 160.942 19.12C161.542 18.9067 162.202 18.8 162.922 18.8C163.642 18.8 164.295 18.9067 164.882 19.12C165.482 19.32 165.989 19.6133 166.402 20C166.815 20.3733 167.135 20.8267 167.362 21.36C167.589 21.8933 167.702 22.4867 167.702 23.14V25.84C167.702 26.4933 167.589 27.0933 167.362 27.64C167.135 28.1733 166.815 28.6333 166.402 29.02C165.989 29.3933 165.489 29.6867 164.902 29.9C164.315 30.1 163.655 30.2 162.922 30.2ZM160.642 25.84C160.642 26.5067 160.842 27.0333 161.242 27.42C161.655 27.8067 162.215 28 162.922 28C163.629 28 164.182 27.8067 164.582 27.42C164.995 27.0333 165.202 26.5067 165.202 25.84V23.14C165.202 22.4733 164.995 21.9467 164.582 21.56C164.182 21.1733 163.629 20.98 162.922 20.98C162.215 20.98 161.655 21.1733 161.242 21.56C160.842 21.9467 160.642 22.4733 160.642 23.14V25.84ZM169.274 19H171.274L172.114 25.84C172.141 26.0667 172.161 26.34 172.174 26.66C172.201 26.9667 172.227 27.2733 172.254 27.58C172.281 27.9267 172.301 28.2867 172.314 28.66H172.554C172.594 28.2867 172.634 27.9267 172.674 27.58C172.701 27.2733 172.734 26.96 172.774 26.64C172.827 26.32 172.867 26.0533 172.894 25.84L174.014 19H175.834L176.934 25.84C176.974 26.0667 177.014 26.34 177.054 26.66C177.094 26.9667 177.127 27.2733 177.154 27.58C177.194 27.9267 177.227 28.2867 177.254 28.66H177.494C177.521 28.2867 177.547 27.9267 177.574 27.58C177.601 27.2733 177.627 26.9667 177.654 26.66C177.681 26.34 177.707 26.0667 177.734 25.84L178.574 19H180.554L179.054 30H176.234L175.174 22.9C175.147 22.7 175.127 22.4667 175.114 22.2C175.101 21.92 175.087 21.6533 175.074 21.4C175.061 21.1067 175.054 20.8067 175.054 20.5H174.814C174.814 20.8067 174.807 21.1067 174.794 21.4C174.781 21.6533 174.761 21.92 174.734 22.2C174.721 22.4667 174.701 22.7 174.674 22.9L173.554 30H170.754L169.274 19Z" fill="white"/>
</g>
<defs>
<clipPath id="clip0_375_206">
<rect width="187" height="37" fill="white"/>
</clipPath>
</defs>
</svg>
